<?xml version="1.0" encoding="UTF-8"?>
<svg version="1.1" xmlns="http://www.w3.org/2000/svg" width="400" height="400">
<path d="M0 0 C0.69736267 -0.00367584 1.39472534 -0.00735168 2.11322021 -0.01113892 C15.66574082 -0.02266682 25.48755444 2.4515953 37.1875 9.5 C37.97125 9.78875 38.755 10.0775 39.5625 10.375 C41.94936002 11.39794001 43.61869789 12.46854909 45.6875 14 C48.44399617 16.03921437 50.98583531 17.25056988 54.1875 18.5 C56.94483744 20.02841177 59.6924093 21.56831688 62.1875 23.5 C62.1875 24.16 62.1875 24.82 62.1875 25.5 C63.1775 25.17 64.1675 24.84 65.1875 24.5 C68.375 26.8125 68.375 26.8125 71.1875 29.5 C71.1875 30.16 71.1875 30.82 71.1875 31.5 C72.486875 31.5928125 72.486875 31.5928125 73.8125 31.6875 C78.0970769 32.71897222 80.08536449 34.39786449 83.1875 37.5 C84.24996527 39.46752828 85.25887808 41.46587579 86.1875 43.5 C86.72375 43.995 87.26 44.49 87.8125 45 C89.87247582 47.24724635 89.82403485 49.5317013 90.1875 52.5 C90.50424575 53.83737094 90.83020064 55.17288808 91.1875 56.5 C91.8475 56.5 92.5075 56.5 93.1875 56.5 C93.22991723 58.83294775 93.22842937 61.16702567 93.1875 63.5 C92.8575 63.83 92.5275 64.16 92.1875 64.5 C92.05368173 66.37853753 91.98396631 68.26171442 91.94140625 70.14453125 C91.89209961 71.87219727 91.89209961 71.87219727 91.84179688 73.63476562 C91.78089364 76.07478232 91.72356674 78.51489106 91.66992188 80.95507812 C91.63576172 82.11072266 91.60160156 83.26636719 91.56640625 84.45703125 C91.5413501 85.51897705 91.51629395 86.58092285 91.49047852 87.67504883 C91.19345121 90.44451129 90.61086942 92.13483625 89.1875 94.5 C88.5275 94.5 87.8675 94.5 87.1875 94.5 C87.27248888 101.72479544 87.36758875 108.94938678 87.47502708 116.17388535 C87.52462863 119.52979894 87.56996441 122.88564142 87.609375 126.24169922 C87.65542755 130.11443107 87.71335385 133.98683838 87.7734375 137.859375 C87.78498871 139.044245 87.79653992 140.22911499 87.80844116 141.44989014 C87.92414284 148.08974706 88.49649976 154.40155387 89.73518372 160.92921448 C91.38628378 170.31340934 90.87962783 179.71528207 87.1875 188.5 C86.836875 189.7375 86.48625 190.975 86.125 192.25 C85.30353872 195.09773242 84.34380899 197.77441453 83.1875 200.5 C82.5275 200.5 81.8675 200.5 81.1875 200.5 C80.76404297 201.35464844 80.76404297 201.35464844 80.33203125 202.2265625 C77.17751612 208.4925277 74.0438985 214.38109347 69.1875 219.5 C68.5275 219.5 67.8675 219.5 67.1875 219.5 C66.92195313 220.08136719 66.65640625 220.66273438 66.3828125 221.26171875 C62.30736057 228.89320227 54.94561623 234.7283225 48.265625 240.0234375 C44.02662605 243.44724434 41.63075489 246.61349021 39.1875 251.5 C38.5275 251.5 37.8675 251.5 37.1875 251.5 C36.8575 253.15 36.5275 254.8 36.1875 256.5 C35.1975 256.5 34.2075 256.5 33.1875 256.5 C33.1875 257.49 33.1875 258.48 33.1875 259.5 C30.1875 261.5 30.1875 261.5 27.1875 261.5 C27.0225 262.221875 26.8575 262.94375 26.6875 263.6875 C24.78902203 267.24714619 22.61740838 268.36334075 19.16015625 270.2890625 C16.14367146 272.14076603 14.47986791 273.97882243 12.75 277.0625 C11.05687691 279.70377202 9.98937784 280.28585294 7.1875 281.5 C6.8575 282.16 6.5275 282.82 6.1875 283.5 C-2.3925 283.5 -10.9725 283.5 -19.8125 283.5 C-19.8125 264.36 -19.8125 245.22 -19.8125 225.5 C-12.3875 223.52 -12.3875 223.52 -4.8125 221.5 C-2.05960285 220.54500854 0.67796566 219.54043116 3.375 218.4375 C4.58542969 217.95152344 5.79585937 217.46554687 7.04296875 216.96484375 C9.7966198 215.68208705 11.95863226 214.54800496 14.1875 212.5 C14.5175 211.51 14.8475 210.52 15.1875 209.5 C15.8475 209.5 16.5075 209.5 17.1875 209.5 C17.1875 208.84 17.1875 208.18 17.1875 207.5 C21.57211538 204.5 21.57211538 204.5 24.1875 204.5 C24.455625 203.860625 24.72375 203.22125 25 202.5625 C26.1875 200.5 26.1875 200.5 29.1875 199.5 C29.92073796 197.48491642 29.92073796 197.48491642 30.1875 195.5 C30.8475 195.5 31.5075 195.5 32.1875 195.5 C32.455625 194.736875 32.72375 193.97375 33 193.1875 C34.13884505 190.61011382 35.00166671 189.23045136 37.1875 187.5 C37.8475 187.5 38.5075 187.5 39.1875 187.5 C40.85239182 183.57561214 42.05954037 179.60899581 43.1875 175.5 C41.2075 175.83 39.2275 176.16 37.1875 176.5 C37.08429443 177.09176025 36.98108887 177.68352051 36.87475586 178.29321289 C33.77137914 188.25819414 16.76803969 197.71934562 8.20214844 202.640625 C-0.59804102 207.13839373 -10.46503852 209.57891829 -19.8125 212.5 C-19.8125 143.2 -19.8125 73.9 -19.8125 2.5 C-13.18171273 -0.15231491 -7.05827349 0.01858683 0 0 Z M9.1875 86.5 C8.8575 87.49 8.5275 88.48 8.1875 89.5 C7.1975 89.5 6.2075 89.5 5.1875 89.5 C5.1875 90.16 5.1875 90.82 5.1875 91.5 C4.671875 91.5825 4.15625 91.665 3.625 91.75 C0.14294268 92.82140225 -2.68450885 94.63523605 -5.8125 96.5 C-5.8125 98.15 -5.8125 99.8 -5.8125 101.5 C-1.90615621 100.37150068 0.40149474 99.41264186 3.1875 96.5 C5.375 95.8125 5.375 95.8125 7.1875 95.5 C7.1875 94.84 7.1875 94.18 7.1875 93.5 C8.1775 93.5 9.1675 93.5 10.1875 93.5 C10.1875 92.84 10.1875 92.18 10.1875 91.5 C21.76905481 90.96271137 29.99832649 93.22346372 40.1875 98.5 C40.8475 98.5 41.5075 98.5 42.1875 98.5 C42.1875 99.16 42.1875 99.82 42.1875 100.5 C45.14127498 102.86980013 45.14127498 102.86980013 49.1875 102.5 C49.1875 101.18 49.1875 99.86 49.1875 98.5 C48.5275 98.5 47.8675 98.5 47.1875 98.5 C47.1875 97.84 47.1875 97.18 47.1875 96.5 C40.9875918 93.16752182 40.9875918 93.16752182 34.1875 91.5 C34.1875 90.84 34.1875 90.18 34.1875 89.5 C33.54941406 89.36722656 32.91132813 89.23445313 32.25390625 89.09765625 C31.42761719 88.92105469 30.60132813 88.74445313 29.75 88.5625 C28.92628906 88.38847656 28.10257813 88.21445313 27.25390625 88.03515625 C25.1875 87.5 25.1875 87.5 24.1875 86.5 C21.65700598 86.42686433 19.15445163 86.40752473 16.625 86.4375 C15.55862305 86.44426758 15.55862305 86.44426758 14.47070312 86.45117188 C12.70959987 86.46299136 10.94853964 86.48092737 9.1875 86.5 Z M-3.8125 113.5 C-3.8125 114.16 -3.8125 114.82 -3.8125 115.5 C-4.4725 115.5 -5.1325 115.5 -5.8125 115.5 C-5.94527344 116.13808594 -6.07804688 116.77617187 -6.21484375 117.43359375 C-6.39144531 118.25988281 -6.56804687 119.08617187 -6.75 119.9375 C-6.92402344 120.76121094 -7.09804687 121.58492187 -7.27734375 122.43359375 C-7.8125 124.5 -7.8125 124.5 -8.8125 125.5 C-8.85313832 127.16617115 -8.855221 128.83388095 -8.8125 130.5 C-5.3475 130.005 -5.3475 130.005 -1.8125 129.5 C-1.8125 128.84 -1.8125 128.18 -1.8125 127.5 C-1.1525 127.5 -0.4925 127.5 0.1875 127.5 C1.85416667 126.16666667 1.85416667 126.16666667 3.1875 124.5 C3.1875 123.84 3.1875 123.18 3.1875 122.5 C10.95556821 122.19778409 17.83464106 122.17022264 25.19921875 124.84375 C27.3133422 125.65671396 27.3133422 125.65671396 30.1875 125.5 C30.1875 126.16 30.1875 126.82 30.1875 127.5 C30.82558594 127.83773437 31.46367187 128.17546875 32.12109375 128.5234375 C32.94738281 128.96945313 33.77367187 129.41546875 34.625 129.875 C35.44871094 130.31585938 36.27242187 130.75671875 37.12109375 131.2109375 C39.1875 132.5 39.1875 132.5 40.1875 134.5 C40.8475 134.5 41.5075 134.5 42.1875 134.5 C42.1875 135.49 42.1875 136.48 42.1875 137.5 C44.1675 137.17 46.1475 136.84 48.1875 136.5 C47.5275 134.19 46.8675 131.88 46.1875 129.5 C45.5275 129.5 44.8675 129.5 44.1875 129.5 C44.1875 128.84 44.1875 128.18 44.1875 127.5 C43.5275 127.5 42.8675 127.5 42.1875 127.5 C41.919375 126.860625 41.65125 126.22125 41.375 125.5625 C40.30082248 123.16868314 40.30082248 123.16868314 37.1875 122.5 C36.52083333 121.16666667 35.85416667 119.83333333 35.1875 118.5 C34.1975 118.17 33.2075 117.84 32.1875 117.5 C32.1875 116.84 32.1875 116.18 32.1875 115.5 C31.5275 115.5 30.8675 115.5 30.1875 115.5 C30.1875 114.84 30.1875 114.18 30.1875 113.5 C27.7125 113.005 27.7125 113.005 25.1875 112.5 C25.1875 111.84 25.1875 111.18 25.1875 110.5 C24.33285156 110.43941406 23.47820312 110.37882812 22.59765625 110.31640625 C21.49292969 110.23261719 20.38820313 110.14882812 19.25 110.0625 C17.59677734 109.94068359 17.59677734 109.94068359 15.91015625 109.81640625 C13.1875 109.5 13.1875 109.5 12.1875 108.5 C5.59880322 107.80645297 1.23730429 109.06799091 -3.8125 113.5 Z " fill="#EA7546" transform="translate(162.8125,57.5)"/>
<path d="M0 0 C1.32 0.33 2.64 0.66 4 1 C2.68021929 6.41110091 0.06714573 10.26441506 -4 14 C-4.66 14 -5.32 14 -6 14 C-6.26554687 14.58007812 -6.53109375 15.16015625 -6.8046875 15.7578125 C-10.50175138 22.69282776 -16.62262574 27.62694337 -23 32 C-22.875 29.25 -22.875 29.25 -22 26 C-19.0625 23.8125 -19.0625 23.8125 -16 22 C-15.34 21.01 -14.68 20.02 -14 19 C-13.34 19 -12.68 19 -12 19 C-11.938125 18.443125 -11.87625 17.88625 -11.8125 17.3125 C-10.66406092 14.04386569 -8.46895567 12.41284304 -6 10 C-3.44623484 6.78651217 -1.30442653 3.91327958 0 0 Z " fill="#FAAF3F" transform="translate(236,263)"/>
<path d="M0 0 C1.32 0.66 2.64 1.32 4 2 C3.07161713 3.31896465 2.13194268 4.62998689 1.1875 5.9375 C0.66542969 6.66839844 0.14335937 7.39929688 -0.39453125 8.15234375 C-2 10 -2 10 -5 11 C-5.33 11.66 -5.66 12.32 -6 13 C-14.58 13 -23.16 13 -32 13 C-32 12.34 -32 11.68 -32 11 C-29.43269226 9.71634613 -27.55347003 9.86724365 -24.6875 9.875 C-23.74261719 9.87242187 -22.79773438 9.86984375 -21.82421875 9.8671875 C-19 10 -19 10 -16.35546875 10.53125 C-12.57719293 11.28314569 -10.51485939 10.57562662 -7 9 C-4.37205073 6.19275595 -2.15357674 3.18127141 0 0 Z " fill="#F44742" transform="translate(175,328)"/>
<path d="M0 0 C3 2 3 2 3.625 4.875 C3.74875 5.90625 3.8725 6.9375 4 8 C4.31674575 9.33737094 4.64270064 10.67288808 5 12 C5.66 12 6.32 12 7 12 C7.04241723 14.33294775 7.04092937 16.66702567 7 19 C6.67 19.33 6.34 19.66 6 20 C5.84259395 21.70563778 5.74906608 23.41727244 5.68359375 25.12890625 C5.64169922 26.16337891 5.59980469 27.19785156 5.55664062 28.26367188 C5.51732422 29.35228516 5.47800781 30.44089844 5.4375 31.5625 C5.39431641 32.65498047 5.35113281 33.74746094 5.30664062 34.87304688 C5.20017932 37.58189564 5.09816484 40.29083992 5 43 C4.01 43 3.02 43 2 43 C2.06900513 41.75295288 2.06900513 41.75295288 2.1394043 40.48071289 C2.30403743 37.35572808 2.45307265 34.23047132 2.59204102 31.10424805 C2.6856478 29.10211629 2.79675039 27.10082702 2.90820312 25.09960938 C3.19161985 18.48099519 3.27819786 12.90555725 0.68554688 6.73828125 C-0.21566082 4.45316772 -0.23481175 2.42638804 0 0 Z " fill="#FBB738" transform="translate(249,102)"/>
<path d="M0 0 C0.66 0.33 1.32 0.66 2 1 C2.29587368 9.93100175 2.51556945 17.63536925 -1 26 C-1.350625 27.2375 -1.70125 28.475 -2.0625 29.75 C-2.88396128 32.59773242 -3.84369101 35.27441453 -5 38 C-5.66 38 -6.32 38 -7 38 C-7.28875 38.639375 -7.5775 39.27875 -7.875 39.9375 C-9 42 -9 42 -11 43 C-10.125 38.25 -10.125 38.25 -9 36 C-8.34 36 -7.68 36 -7 36 C-7 35.34 -7 34.68 -7 34 C-6.34 34 -5.68 34 -5 34 C-5.04125 33.0925 -5.0825 32.185 -5.125 31.25 C-4.99832897 27.95655327 -4.45657461 26.82746836 -3 24 C-2.61250787 21.67504723 -2.27017161 19.34148732 -2 17 C-1.34 17 -0.68 17 0 17 C0 11.39 0 5.78 0 0 Z " fill="#FE9458" transform="translate(251,220)"/>
<path d="M0 0 C1.2375 0.9590625 1.2375 0.9590625 2.5 1.9375 C2.17 2.5975 1.84 3.2575 1.5 3.9375 C-0.56271639 3.6264315 -2.62516466 3.31358484 -4.6875 3 C-5.83605469 2.82597656 -6.98460937 2.65195313 -8.16796875 2.47265625 C-10.96325212 2.02370687 -13.72933586 1.51667838 -16.5 0.9375 C-16.5 -0.0525 -16.5 -1.0425 -16.5 -2.0625 C-10.67635275 -3.70040079 -5.04421909 -3.36281273 0 0 Z " fill="#EF6858" transform="translate(189.5,174.0625)"/>
<path d="M0 0 C0.99 0 1.98 0 3 0 C2.8125 1.8125 2.8125 1.8125 2 4 C-2.17857143 7 -2.17857143 7 -5 7 C-4.67 8.98 -4.34 10.96 -4 13 C-8.75 14.125 -8.75 14.125 -11 13 C-10.67 11.02 -10.34 9.04 -10 7 C-9.34 7 -8.68 7 -8 7 C-8 6.34 -8 5.68 -8 5 C-3.61538462 2 -3.61538462 2 -1 2 C-0.67 1.34 -0.34 0.68 0 0 Z " fill="#E94F46" transform="translate(162,147)"/>
<path d="M0 0 C6.62850125 2.53442695 13.34521785 5.6512716 19 10 C19 10.66 19 11.32 19 12 C11.4014885 9.88238204 5.49838836 6.43347991 -1 2 C-0.67 1.34 -0.34 0.68 0 0 Z " fill="#F7AF3E" transform="translate(206,71)"/>
<path d="M0 0 C0.66 0 1.32 0 2 0 C1.5547115 5.27315333 0.91626837 10.01770224 -1 15 C-0.34 15 0.32 15 1 15 C1 15.66 1 16.32 1 17 C-0.96147874 18.38938077 -2.96166576 19.7260411 -5 21 C-4.71831703 19.04020573 -4.42433283 17.08217622 -4.125 15.125 C-3.96257812 14.03445312 -3.80015625 12.94390625 -3.6328125 11.8203125 C-3 9 -3 9 -1 7 C-0.95919217 5.00041636 -0.95745644 2.99954746 -1 1 C-0.67 0.67 -0.34 0.34 0 0 Z " fill="#EF4D41" transform="translate(155,173)"/>
<path d="M0 0 C4.48322338 0.32023024 7.29743806 1.43336976 10.67578125 4.45703125 C12.89854494 7.04697714 13.86963747 9.79730618 15 13 C13.68 13 12.36 13 11 13 C10.67 11.35 10.34 9.7 10 8 C9.34 8 8.68 8 8 8 C7.34 7.01 6.68 6.02 6 5 C4.03247172 3.93753473 2.03412421 2.92862192 0 2 C0 1.34 0 0.68 0 0 Z " fill="#F9BC32" transform="translate(234,89)"/>
<path d="M0 0 C0.33 0 0.66 0 1 0 C1.29341888 5.67276511 1.00559652 8.99067246 -2 14 C-2.66 14 -3.32 14 -4 14 C-4.28875 14.639375 -4.5775 15.27875 -4.875 15.9375 C-6 18 -6 18 -8 19 C-7.125 14.25 -7.125 14.25 -6 12 C-5.34 12 -4.68 12 -4 12 C-4 11.34 -4 10.68 -4 10 C-3.34 10 -2.68 10 -2 10 C-2.04125 9.0925 -2.0825 8.185 -2.125 7.25 C-2.00468444 4.1217954 -1.6085292 2.61385994 0 0 Z " fill="#F8B13C" transform="translate(248,244)"/>
<path d="M0 0 C0.33 0 0.66 0 1 0 C2.17700048 4.62459244 2.11408412 9.07866462 2.0625 13.8125 C2.05798828 14.60076172 2.05347656 15.38902344 2.04882812 16.20117188 C2.03711312 18.13414761 2.01917998 20.06708393 2 22 C1.01 22 0.02 22 -1 22 C-1.14715692 14.6094524 -0.70776992 7.35575165 0 0 Z " fill="#F3AC40" transform="translate(252,123)"/>
<path d="M0 0 C0 1.32 0 2.64 0 4 C-1.98 4.33 -3.96 4.66 -6 5 C-6.33 3.68 -6.66 2.36 -7 1 C-2.25 0 -2.25 0 0 0 Z " fill="#F35332" transform="translate(180,171)"/>
<path d="M0 0 C1.22589844 0.15275391 1.22589844 0.15275391 2.4765625 0.30859375 C3.41628906 0.43427734 3.41628906 0.43427734 4.375 0.5625 C4.375 1.2225 4.375 1.8825 4.375 2.5625 C-0.245 2.5625 -4.865 2.5625 -9.625 2.5625 C-5.76762989 -0.00908007 -4.50963704 -0.57981048 0 0 Z " fill="#FD3C30" transform="translate(152.625,58.4375)"/>
<path d="M0 0 C8.86956522 0.73913043 8.86956522 0.73913043 12 4 C12 4.66 12 5.32 12 6 C10.55903414 5.57405412 9.12231288 5.13373367 7.6875 4.6875 C6.88699219 4.44386719 6.08648437 4.20023437 5.26171875 3.94921875 C2.90035427 2.95817977 1.66120007 1.91925057 0 0 Z " fill="#F79750" transform="translate(213,77)"/>
<path d="M0 0 C-1.26941497 3.91402949 -2.51167694 5.79072873 -6 8 C-6.25 5.6875 -6.25 5.6875 -6 3 C-3.95575462 1.02389614 -2.8823175 0 0 0 Z " fill="#F9BE32" transform="translate(231,275)"/>
<path d="M0 0 C0.33 1.32 0.66 2.64 1 4 C-0.65 5.32 -2.3 6.64 -4 8 C-3.6875 5.125 -3.6875 5.125 -3 2 C-2.01 1.34 -1.02 0.68 0 0 Z " fill="#F5B43E" transform="translate(217,287)"/>
<path d="M0 0 C0.66 0.33 1.32 0.66 2 1 C1.25 2.9375 1.25 2.9375 0 5 C-2.125 5.75 -2.125 5.75 -4 6 C-2.84826645 3.53199953 -1.95216435 1.95216435 0 0 Z " fill="#FE534E" transform="translate(174,332)"/>
<path d="M0 0 C1.32 0.33 2.64 0.66 4 1 C4 2.32 4 3.64 4 5 C2.68 5 1.36 5 0 5 C0 3.35 0 1.7 0 0 Z " fill="#EC724E" transform="translate(180,171)"/>
<path d="M0 0 C0.66 0 1.32 0 2 0 C2 0.66 2 1.32 2 2 C3.32 2.33 4.64 2.66 6 3 C3 5 3 5 0.8125 4.625 C0.214375 4.41875 -0.38375 4.2125 -1 4 C-0.67 2.68 -0.34 1.36 0 0 Z " fill="#F93E3D" transform="translate(152,156)"/>
<path d="M0 0 C1.98 0 3.96 0 6 0 C5.67 0.99 5.34 1.98 5 3 C3.02 3 1.04 3 -1 3 C-0.67 2.01 -0.34 1.02 0 0 Z " fill="#F15F52" transform="translate(162,338)"/>
<path d="M0 0 C3.73487777 0.4979837 5.81237635 0.87491756 9 3 C6.36 3 3.72 3 1 3 C0.67 2.01 0.34 1.02 0 0 Z " fill="#F83127" transform="translate(175,58)"/>
<path d="M0 0 C0.99 0 1.98 0 3 0 C3.33 0.99 3.66 1.98 4 3 C1 5 1 5 -2 5 C-2 4.34 -2 3.68 -2 3 C-1.34 3 -0.68 3 0 3 C0 2.01 0 1.02 0 0 Z " fill="#F66454" transform="translate(184,321)"/>
<path d="M0 0 C0.66 0 1.32 0 2 0 C2.33 1.65 2.66 3.3 3 5 C0.5625 4.625 0.5625 4.625 -2 4 C-2.33 3.34 -2.66 2.68 -3 2 C-2.01 2 -1.02 2 0 2 C0 1.34 0 0.68 0 0 Z " fill="#FC8E55" transform="translate(212,158)"/>
<path d="M0 0 C3 1 3 1 3 1 Z " fill="#E64E48" transform="translate(151,277)"/>
<path d="" fill="#E75048" transform="translate(0,0)"/>
<path d="" fill="#E64948" transform="translate(0,0)"/>
<path d="" fill="#E64848" transform="translate(0,0)"/>
</svg>
